<?xml version="1.0" ?><svg id="Layer_1" style="enable-background:new 0 0 100 100; fill: #8c8888;" version="1.1" viewBox="0 0 100 100" xml:space="preserve" xmlns="http://www.w3.org/2000/svg" xmlns:xlink="http://www.w3.org/1999/xlink"><path d="M48.783,34.212H23.692c-1.104,0-2,0.896-2,2s0.896,2,2,2h25.091c1.104,0,2-0.896,2-2S49.887,34.212,48.783,34.212z"/><path d="M59.739,12.727c-12.959-12.949-34.044-12.949-47.003,0C6.458,19,3,27.341,3,36.212c0,8.872,3.458,17.212,9.735,23.485  c6.479,6.474,14.991,9.711,23.502,9.711c5.854,0,11.708-1.531,16.901-4.594l29.783,29.759C84.49,96.141,86.566,97,88.778,97  c0.035,0,0.07,0,0.105,0c2.251-0.028,4.348-0.942,5.904-2.576c3.073-3.227,2.916-8.507-0.352-11.771L64.865,53.105  c3.003-5.062,4.609-10.854,4.609-16.893C69.474,27.341,66.017,19,59.739,12.727z M15.563,56.868C10.041,51.35,7,44.015,7,36.212  c0-7.802,3.041-15.138,8.563-20.655c5.701-5.696,13.187-8.543,20.675-8.543c7.486,0,14.975,2.848,20.674,8.542  c5.521,5.518,8.563,12.854,8.563,20.656c0,7.803-3.041,15.138-8.563,20.656C45.512,68.258,26.963,68.257,15.563,56.868z   M91.609,85.481c1.744,1.743,1.87,4.516,0.282,6.184C91.085,92.511,90,92.985,88.834,93c-0.018,0-0.036,0-0.054,0  c-1.145,0-2.22-0.445-3.032-1.256L56.505,62.524c1.122-0.864,2.206-1.8,3.234-2.827c1.023-1.022,1.963-2.104,2.833-3.229  L91.609,85.481z"/><path d="M54.362,18.099c-9.994-9.987-26.256-9.988-36.251,0c-4.835,4.831-7.498,11.264-7.498,18.113  c0,6.85,2.663,13.282,7.498,18.114c4.998,4.994,11.562,7.49,18.126,7.49c6.563,0,13.128-2.497,18.125-7.49  c4.835-4.831,7.498-11.264,7.498-18.113C61.86,29.363,59.197,22.93,54.362,18.099z M51.536,51.497  c-8.435,8.429-22.16,8.428-30.597,0c-4.079-4.076-6.325-9.504-6.325-15.284s2.246-11.208,6.325-15.284  c4.218-4.214,9.758-6.322,15.298-6.322c5.541,0,11.081,2.107,15.298,6.322c4.079,4.075,6.325,9.503,6.325,15.284  C57.86,41.993,55.614,47.421,51.536,51.497z"/></svg>